<?xml version="1.0" encoding="utf-8"?>
<svg xmlns="http://www.w3.org/2000/svg"
 xmlns:xlink="http://www.w3.org/1999/xlink" width="800" height="600" >
<defs>
    <style type="text/css"><![CDATA[
        line {
        stroke: #000;
        stroke-width: 5px;
        }
    ]]></style></defs>
<rect x="0" y="0" width="315.4506715362283" height="63.39987488310604" style="fill: yellow"/>
<rect x="315.4506715362283" y="0" width="271.43121105836525" height="63.39987488310604" style="fill: yellow"/>
<rect x="586.8818825945935" y="0" width="70.25418775762125" height="63.39987488310604" style="fill: white"/>
<rect x="657.1360703522148" y="0" width="95.70374687730691" height="63.39987488310604" style="fill: white"/>
<rect x="752.8398172295217" y="0" width="47.160182770478286" height="63.39987488310604" style="fill: blue"/>
<rect x="0" y="63.39987488310604" width="63.588763161462666" height="52.74390912365003" style="fill: red"/>
<rect x="63.588763161462666" y="63.39987488310604" width="69.85632894182591" height="52.74390912365003" style="fill: white"/>
<rect x="133.44509210328857" y="63.39987488310604" width="182.00557943293973" height="52.74390912365003" style="fill: white"/>
<rect x="315.4506715362283" y="63.39987488310604" width="66.35325354895946" height="159.49343385037005" style="fill: white"/>
<rect x="381.80392508518776" y="63.39987488310604" width="60.34278628638907" height="114.6187848622927" style="fill: yellow"/>
<rect x="442.1467113715768" y="63.39987488310604" width="92.26240846667059" height="114.6187848622927" style="fill: white"/>
<rect x="534.4091198382474" y="63.39987488310604" width="218.4306973912743" height="114.6187848622927" style="fill: white"/>
<rect x="752.8398172295217" y="63.39987488310604" width="47.160182770478286" height="114.6187848622927" style="fill: yellow"/>
<rect x="0" y="116.14378400675606" width="63.588763161462666" height="91.36009344226572" style="fill: white"/>
<rect x="63.588763161462666" y="116.14378400675606" width="69.85632894182591" height="91.36009344226572" style="fill: white"/>
<rect x="133.44509210328857" y="116.14378400675606" width="182.00557943293973" height="91.36009344226572" style="fill: white"/>
<rect x="381.80392508518776" y="178.01865974539874" width="60.34278628638907" height="44.874648988077354" style="fill: yellow"/>
<rect x="442.1467113715768" y="178.01865974539874" width="92.26240846667059" height="44.874648988077354" style="fill: white"/>
<rect x="534.4091198382474" y="178.01865974539874" width="218.4306973912743" height="44.874648988077354" style="fill: red"/>
<rect x="752.8398172295217" y="178.01865974539874" width="47.160182770478286" height="44.874648988077354" style="fill: white"/>
<rect x="0" y="207.5038774490218" width="133.44509210328857" height="15.389431284454304" style="fill: white"/>
<rect x="133.44509210328857" y="207.5038774490218" width="92.01903680941089" height="15.389431284454304" style="fill: yellow"/>
<rect x="225.46412891269946" y="207.5038774490218" width="89.98654262352883" height="15.389431284454304" style="fill: white"/>
<rect x="0" y="222.8933087334761" width="225.46412891269946" height="100.10957156225356" style="fill: blue"/>
<rect x="225.46412891269946" y="222.8933087334761" width="89.98654262352883" height="100.10957156225356" style="fill: white"/>
<rect x="315.4506715362283" y="222.8933087334761" width="66.35325354895946" height="100.10957156225356" style="fill: white"/>
<rect x="381.80392508518776" y="222.8933087334761" width="60.34278628638907" height="100.10957156225356" style="fill: red"/>
<rect x="442.1467113715768" y="222.8933087334761" width="92.26240846667059" height="100.10957156225356" style="fill: white"/>
<rect x="534.4091198382474" y="222.8933087334761" width="218.4306973912743" height="100.10957156225356" style="fill: white"/>
<rect x="752.8398172295217" y="222.8933087334761" width="47.160182770478286" height="100.10957156225356" style="fill: yellow"/>
<rect x="0" y="323.00288029572965" width="225.46412891269946" height="23.777413182812552" style="fill: white"/>
<rect x="225.46412891269946" y="323.00288029572965" width="89.98654262352883" height="23.777413182812552" style="fill: white"/>
<rect x="315.4506715362283" y="323.00288029572965" width="66.35325354895946" height="23.777413182812552" style="fill: blue"/>
<rect x="381.80392508518776" y="323.00288029572965" width="152.60519475305966" height="50.38110543130796" style="fill: white"/>
<rect x="534.4091198382474" y="323.00288029572965" width="218.4306973912743" height="182.10092108104345" style="fill: white"/>
<rect x="752.8398172295217" y="323.00288029572965" width="47.160182770478286" height="182.10092108104345" style="fill: blue"/>
<rect x="0" y="346.7802934785422" width="225.46412891269946" height="26.603692248495406" style="fill: white"/>
<rect x="225.46412891269946" y="346.7802934785422" width="89.98654262352883" height="26.603692248495406" style="fill: white"/>
<rect x="315.4506715362283" y="346.7802934785422" width="66.35325354895946" height="26.603692248495406" style="fill: white"/>
<rect x="0" y="373.3839857270376" width="315.4506715362283" height="48.62643780244281" style="fill: white"/>
<rect x="315.4506715362283" y="373.3839857270376" width="66.35325354895946" height="85.43043127871266" style="fill: white"/>
<rect x="381.80392508518776" y="373.3839857270376" width="94.50430549613128" height="85.43043127871266" style="fill: red"/>
<rect x="476.30823058131904" y="373.3839857270376" width="58.10088925692838" height="85.43043127871266" style="fill: blue"/>
<rect x="0" y="422.0104235294804" width="282.7686946274496" height="177.98957647051958" style="fill: red"/>
<rect x="282.7686946274496" y="422.0104235294804" width="32.68197690877872" height="177.98957647051958" style="fill: white"/>
<rect x="315.4506715362283" y="458.8144170057503" width="66.35325354895946" height="46.289384371022834" style="fill: white"/>
<rect x="381.80392508518776" y="458.8144170057503" width="94.50430549613128" height="46.289384371022834" style="fill: yellow"/>
<rect x="476.30823058131904" y="458.8144170057503" width="58.10088925692838" height="46.289384371022834" style="fill: white"/>
<rect x="315.4506715362283" y="505.1038013767731" width="66.35325354895946" height="35.53090026230399" style="fill: blue"/>
<rect x="381.80392508518776" y="505.1038013767731" width="94.50430549613128" height="35.53090026230399" style="fill: red"/>
<rect x="476.30823058131904" y="505.1038013767731" width="58.10088925692838" height="79.54629748639246" style="fill: white"/>
<rect x="534.4091198382474" y="505.1038013767731" width="218.4306973912743" height="94.8961986232269" style="fill: blue"/>
<rect x="752.8398172295217" y="505.1038013767731" width="47.160182770478286" height="94.8961986232269" style="fill: blue"/>
<rect x="315.4506715362283" y="540.6347016390771" width="66.35325354895946" height="59.36529836092291" style="fill: yellow"/>
<rect x="381.80392508518776" y="540.6347016390771" width="94.50430549613128" height="44.015397224088474" style="fill: red"/>
<rect x="381.80392508518776" y="584.6500988631656" width="94.50430549613128" height="15.349901136834433" style="fill: red"/>
<rect x="476.30823058131904" y="584.6500988631656" width="58.10088925692838" height="15.349901136834433" style="fill: white"/>
<line x1="0" y1="63.39987488310604" x2="800" y2="63.39987488310604"/>
<line x1="0" y1="116.14378400675606" x2="315.4506715362283" y2="116.14378400675606"/>
<line x1="381.80392508518776" y1="178.01865974539874" x2="800" y2="178.01865974539874"/>
<line x1="0" y1="207.5038774490218" x2="315.4506715362283" y2="207.5038774490218"/>
<line x1="0" y1="222.8933087334761" x2="800" y2="222.8933087334761"/>
<line x1="0" y1="323.00288029572965" x2="800" y2="323.00288029572965"/>
<line x1="0" y1="346.7802934785422" x2="381.80392508518776" y2="346.7802934785422"/>
<line x1="0" y1="373.3839857270376" x2="534.4091198382474" y2="373.3839857270376"/>
<line x1="0" y1="422.0104235294804" x2="315.4506715362283" y2="422.0104235294804"/>
<line x1="315.4506715362283" y1="458.8144170057503" x2="534.4091198382474" y2="458.8144170057503"/>
<line x1="315.4506715362283" y1="505.1038013767731" x2="800" y2="505.1038013767731"/>
<line x1="315.4506715362283" y1="540.6347016390771" x2="476.30823058131904" y2="540.6347016390771"/>
<line x1="381.80392508518776" y1="584.6500988631656" x2="534.4091198382474" y2="584.6500988631656"/>
<line x1="63.588763161462666" y1="63.39987488310604" x2="63.588763161462666" y2="207.5038774490218"/>
<line x1="133.44509210328857" y1="63.39987488310604" x2="133.44509210328857" y2="222.8933087334761"/>
<line x1="225.46412891269946" y1="207.5038774490218" x2="225.46412891269946" y2="373.3839857270376"/>
<line x1="282.7686946274496" y1="422.0104235294804" x2="282.7686946274496" y2="600"/>
<line x1="315.4506715362283" y1="0" x2="315.4506715362283" y2="600"/>
<line x1="381.80392508518776" y1="63.39987488310604" x2="381.80392508518776" y2="600"/>
<line x1="442.1467113715768" y1="63.39987488310604" x2="442.1467113715768" y2="323.00288029572965"/>
<line x1="476.30823058131904" y1="373.3839857270376" x2="476.30823058131904" y2="600"/>
<line x1="534.4091198382474" y1="63.39987488310604" x2="534.4091198382474" y2="600"/>
<line x1="586.8818825945935" y1="0" x2="586.8818825945935" y2="63.39987488310604"/>
<line x1="657.1360703522148" y1="0" x2="657.1360703522148" y2="63.39987488310604"/>
<line x1="752.8398172295217" y1="0" x2="752.8398172295217" y2="600"/>
</svg>