<?xml version="1.0" encoding="utf-8"?>
<svg xmlns="http://www.w3.org/2000/svg"
    xmlns:xlink="http://www.w3.org/1999/xlink" width="600" height="450" >
<defs>

<style type="text/css"><![CDATA[

line {
    stroke: #000;
    stroke-width: 5px;
    fill: none;
}


]]></style>
</defs>
<path d="M432.2355016513333,68.6136899155924 L432.2355016513333,68.6136899155924 L426.8355659278106,118.22533959246978 L600.0,38.6100782181539 L600.0,0.0 L560.0428732743111,0.0" style="fill: white"/>
<path d="M574.4637625820892,450.0 L574.4637625820892,450.0 L492.351745823031,289.60765705968515 L464.94902596342087,325.34132378901114 L548.8945989717474,450.0" style="fill: red"/>
<path d="M363.47406427195665,0.0 L363.47406427195665,0.0 L260.69505772716445,59.954450061277356 L371.8660598582331,89.74625432192978 L461.6218351198933,0.0" style="fill: blue"/>
<path d="M49.035607104514206,183.42252383393716 L49.035607104514206,183.42252383393716 L136.97305230093315,132.12565549684817 L0.0,37.204554191209596 L0.0,137.13451809033666" style="fill: white"/>
<path d="M0.0,450.0 L0.0,450.0 L316.8093515079506,450.0 L0.0,413.6739878361214" style="fill: white"/>
<path d="M600.0,149.23229072886602 L600.0,149.23229072886602 L600.0,74.20498753516536 L484.14136620427433,273.57002851932276 L492.351745823031,289.60765705968515" style="fill: red"/>
<path d="M464.94902596342087,325.34132378901114 L464.94902596342087,325.34132378901114 L412.73217071855237,247.79960458387225 L395.4067359833126,406.9762027126335 L397.8600532212649,412.82661741909925" style="fill: blue"/>
<path d="M110.42926850624818,241.3761277431771 L110.42926850624818,241.3761277431771 L214.2189656520432,185.65638320917316 L136.97305230093315,132.12565549684817 L49.035607104514206,183.42252383393716" style="fill: white"/>
<path d="M316.8093515079506,450.0 L316.8093515079506,450.0 L331.43680746297366,450.0 L110.42926850624812,241.3761277431771 L44.29903269911,276.8783013353318 L303.5888114184665,448.48410566854244" style="fill: white"/>
<path d="M367.2864282424524,339.9178299052135 L367.2864282424524,339.9178299052135 L407.34927938805197,171.47745211871512 L321.4964390258076,230.72264626660169" style="fill: yellow"/>
<path d="M560.0428732743111,0.0 L560.0428732743111,0.0 L461.6218351198933,0.0 L347.5120615917769,114.09766921200698" style="fill: white"/>
<path d="M257.6501549392395,61.73064423046825 L257.6501549392395,61.73064423046825 L40.71844851380833,65.42207516676648 L136.97305230093315,132.12565549684817" style="fill: white"/>
<path d="M36.969222352621834,0.0 L36.969222352621834,0.0 L260.69505772716445,59.954450061277356 L363.47406427195665,0.0" style="fill: blue"/>
<path d="M245.42721724231538,277.31340177114384 L245.42721724231538,277.31340177114384 L330.32736614321925,334.5935040246998 L329.9784753662993,250.9497206047783 L309.73209433329254,202.66826579908806" style="fill: white"/>
<path d="M600.0,450.0 L600.0,450.0 L600.0,331.88253875647433 L498.7908471268571,302.185384234274 L574.4637625820892,450.0" style="fill: blue"/>
<path d="M126.33137582708373,256.3871957907966 L126.33137582708373,256.3871957907966 L138.00785501001292,267.4094093902424 L287.8646934147911,228.05195656654976 L309.73209433329254,202.66826579908806 L298.9734231623651,177.01211050587372" style="fill: blue"/>
<path d="M600.0,38.6100782181539 L600.0,38.6100782181539 L426.8355659278106,118.22533959246978 L422.9393228469847,154.02188545501858 L484.14136620427433,273.57002851932276 L600.0,74.20498753516536" style="fill: white"/>
<path d="M329.9784753662993,250.9497206047783 L329.9784753662993,250.9497206047783 L330.8062612312944,449.4047850262898 L331.43680746297366,450.0 L413.448367016854,450.0" style="fill: yellow"/>
<path d="M298.97342316236524,177.01211050587366 L298.97342316236524,177.01211050587366 L426.8355659278106,118.22533959246978 L432.2355016513333,68.61368991559242 L286.358070135421,146.92833424801978" style="fill: blue"/>
<path d="M426.8355659278106,118.22533959246978 L426.8355659278106,118.22533959246978 L419.17765484304226,121.74619302788672 L367.2864282424524,339.9178299052135 L395.4067359833126,406.9762027126335" style="fill: white"/>
<path d="M347.5120615917769,114.09766921200698 L347.5120615917769,114.09766921200698 L371.8660598582331,89.74625432192978 L309.6653618534579,73.07759986787099 L170.8852241956681,155.62648759367693 L214.2189656520432,185.65638320917316" style="fill: yellow"/>
<path d="M548.8945989717474,450.0 L548.8945989717474,450.0 L464.94902596342087,325.34132378901114 L397.8600532212649,412.82661741909925 L413.448367016854,450.0" style="fill: white"/>
<path d="M201.9562147954161,327.77456483191065 L201.9562147954161,327.77456483191065 L330.8062612312944,449.4047850262898 L330.32736614321925,334.5935040246998 L245.42721724231538,277.31340177114384" style="fill: blue"/>
<path d="M201.9562147954161,327.77456483191065 L201.9562147954161,327.77456483191065 L287.8646934147911,228.05195656654976 L138.00785501001292,267.4094093902424" style="fill: blue"/>
<path d="M133.7746822102628,429.01286817553915 L133.7746822102628,429.01286817553915 L109.99354141195799,320.3569107260451 L44.29903269911,276.8783013353318 L0.0,300.66034187477567 L0.0,413.6739878361214" style="fill: yellow"/>
<path d="M260.69505772716445,59.954450061277356 L260.69505772716445,59.954450061277356 L36.969222352621834,0.0 L0.0,0.0 L0.0,37.204554191209596 L40.71844851380833,65.42207516676648 L257.6501549392395,61.73064423046825" style="fill: blue"/>
<path d="M126.33137582708373,256.3871957907966 L126.33137582708373,256.3871957907966 L298.9734231623651,177.0121105058737 L286.358070135421,146.92833424801978 L110.42926850624816,241.3761277431771" style="fill: white"/>
<path d="M303.5888114184665,448.48410566854244 L303.5888114184665,448.48410566854244 L109.99354141195799,320.3569107260451 L133.7746822102628,429.01286817553915" style="fill: red"/>
<path d="M260.69505772716445,59.954450061277356 L260.69505772716445,59.954450061277356 L136.97305230093315,132.12565549684817 L170.8852241956681,155.62648759367693 L309.6653618534579,73.07759986787099" style="fill: white"/>
<path d="M0.0,300.66034187477567 L0.0,300.66034187477567 L110.42926850624818,241.3761277431771 L0.0,137.13451809033666" style="fill: yellow"/>
<path d="M321.4964390258076,230.72264626660169 L321.4964390258076,230.72264626660169 L407.34927938805197,171.47745211871512 L419.17765484304226,121.74619302788672 L298.97342316236524,177.01211050587366" style="fill: white"/>
<path d="M600.0,149.23229072886602 L600.0,149.23229072886602 L492.351745823031,289.60765705968515 L498.7908471268571,302.185384234274 L600.0,331.88253875647433" style="fill: blue"/>
<path d="M492.351745823031,289.60765705968515 L492.351745823031,289.60765705968515 L422.9393228469847,154.02188545501858 L412.73217071855237,247.79960458387225 L464.94902596342087,325.34132378901114" style="fill: white"/>
<line x1="560.0428732743111" y1="0.0" x2="0.0" y2="300.66034187477567"/>
<line x1="286.358070135421" y1="146.92833424801978" x2="413.448367016854" y2="450.0"/>
<line x1="0.0" y1="413.6739878361214" x2="316.8093515079506" y2="450.0"/>
<line x1="347.5120615917769" y1="114.09766921200698" x2="461.6218351198933" y2="0.0"/>
<line x1="0.0" y1="137.13451809033666" x2="331.43680746297366" y2="450.0"/>
<line x1="432.2355016513333" y1="68.61368991559239" x2="395.4067359833126" y2="406.9762027126336"/>
<line x1="422.9393228469847" y1="154.02188545501863" x2="574.4637625820892" y2="450.0"/>
<line x1="600.0" y1="38.6100782181539" x2="126.33137582708387" y2="256.38719579079657"/>
<line x1="367.2864282424524" y1="339.9178299052136" x2="419.17765484304226" y2="121.74619302788678"/>
<line x1="214.21896565204318" y1="185.65638320917313" x2="0.0" y2="37.204554191209596"/>
<line x1="309.73209433329254" y1="202.66826579908803" x2="201.95621479541614" y2="327.77456483191065"/>
<line x1="138.00785501001306" y1="267.40940939024233" x2="287.8646934147911" y2="228.05195656654976"/>
<line x1="36.969222352621834" y1="0.0" x2="371.8660598582331" y2="89.74625432192978"/>
<line x1="600.0" y1="149.23229072886602" x2="397.8600532212649" y2="412.8266174190992"/>
<line x1="330.8062612312944" y1="449.4047850262898" x2="329.9784753662993" y2="250.94972060477824"/>
<line x1="49.0356071045142" y1="183.42252383393716" x2="363.47406427195665" y2="0.0"/>
<line x1="245.42721724231538" y1="277.31340177114384" x2="330.32736614321925" y2="334.5935040246998"/>
<line x1="40.71844851380836" y1="65.42207516676648" x2="257.6501549392394" y2="61.73064423046825"/>
<line x1="321.4964390258075" y1="230.72264626660174" x2="407.34927938805197" y2="171.47745211871512"/>
<line x1="600.0" y1="74.20498753516536" x2="484.14136620427433" y2="273.57002851932276"/>
<line x1="412.73217071855237" y1="247.79960458387225" x2="548.8945989717474" y2="450.0"/>
<line x1="303.5888114184665" y1="448.48410566854244" x2="44.29903269911" y2="276.8783013353318"/>
<line x1="309.6653618534579" y1="73.07759986787099" x2="170.88522419566812" y2="155.6264875936769"/>
<line x1="109.99354141195799" y1="320.35691072604516" x2="133.7746822102628" y2="429.01286817553915"/>
<line x1="600.0" y1="331.88253875647433" x2="498.7908471268571" y2="302.185384234274"/>
</svg>
